<svg id="Layer_1" data-name="Layer 1" xmlns="http://www.w3.org/2000/svg" xmlns:xlink="http://www.w3.org/1999/xlink" viewBox="0 0 3000 3000"><defs><style>.cls-1{fill:#121646;}.cls-2{fill:url(#linear-gradient);}.cls-3{fill:url(#linear-gradient-2);}.cls-4{fill:url(#linear-gradient-3);}.cls-5{fill:#0054a6;}.cls-6{fill:url(#linear-gradient-4);}</style><linearGradient id="linear-gradient" x1="1763.69" y1="2174.57" x2="1763.69" y2="1816.79" gradientUnits="userSpaceOnUse"><stop offset="0" stop-color="#0054a6"/><stop offset="1" stop-color="#44c8f5"/></linearGradient><linearGradient id="linear-gradient-2" x1="2116.54" y1="2174.57" x2="2116.54" y2="1816.79" xlink:href="#linear-gradient"/><linearGradient id="linear-gradient-3" x1="2473.51" y1="2174.57" x2="2473.51" y2="1816.79" xlink:href="#linear-gradient"/><linearGradient id="linear-gradient-4" x1="1500" y1="1705.3" x2="1500" y2="555.36" xlink:href="#linear-gradient"/></defs><path class="cls-1" d="M378.18,2120.41c21.77,20.6,54.73,40,90,40,20.6,0,33-6.47,39.44-13.54a35.13,35.13,0,0,0,10-24.72,30.62,30.62,0,0,0-11.18-23.53c-10-8.84-25.31-13-50.61-20.61l-26.49-8.24c-16.48-5.29-40.61-14.12-56.5-31.77-20-21.78-22.37-49.45-22.37-69.46,0-48.26,18.84-77.68,35.91-94.75,20-20,53-37.08,100.64-37.08,38.84,0,84.16,12.36,121.24,31.79L567.69,1948c-30.61-24.13-53.56-26.49-67.1-26.49-10,0-23.54,2.36-33.54,11.78-5.89,5.88-10,12.35-10,21.18,0,7.07,1.18,12.36,5.3,17.66,2.94,3.53,10,10.59,34.13,17.66l31.2,9.41c24.71,7.65,50.61,16.47,71.21,38.85,20,21.18,25.31,43,25.31,70,0,35.9-8.83,70.62-37.08,98.87-33.55,33.55-74.16,40-115.94,40-24.72,0-48.26-2.35-77.1-12.94a274,274,0,0,1-59.44-31.2Z"/><path class="cls-1" d="M679.54,1809.08H773.7V2008c7.06-8.83,18.25-19.43,29.43-25.9,18.24-10.59,37.66-12.95,54.15-12.95,37.07,0,61.79,12.37,77.68,28.25,23.54,23.54,24.72,48.26,24.72,73.57v167.15H865.51v-133c0-19.43-1.17-39.44-11.77-51.21-8.83-10-20.59-11.18-30-11.18-10,0-23.55,1.77-34.14,11.18-8.24,7.65-15.89,21.78-15.89,43v141.25H679.54Z"/><path class="cls-1" d="M1205.71,1975.05h94.17v263.08h-94.17v-28.85c-21.78,30-55.91,37.67-81.8,37.67-28.25,0-63-8.23-94.76-41.78-25.31-27.07-37.66-57.09-37.66-96.53,0-49.43,19.42-84.15,40.6-105.34,22.37-22.37,57.09-37.08,94.76-37.08,42.37,0,67.68,21.78,78.86,34.14Zm-98.87,88.28c-12.95,12.36-18.84,29.43-18.84,43,0,15.31,6.48,31.78,18.25,43,10,9.41,26.49,17.65,42.37,17.65,15.3,0,30.61-6.47,42.38-18.24,8.24-8.24,17.66-21.19,17.66-42.38a58.19,58.19,0,0,0-18.25-43c-8.83-8.24-22.36-17.06-42.37-17.06A60.18,60.18,0,0,0,1106.84,2063.33Z"/><path class="cls-1" d="M1364.64,1975.05h94.17v43a84.77,84.77,0,0,1,37.07-36.49c14.13-7.66,31.19-10.6,48.85-10.6,2.36,0,6.47.59,18.83,1.18V2061c-4.7-2.36-17.65-9.42-40.61-9.42-12.35,0-29.42,1.76-43,14.12-20,18.25-21.18,45.91-21.18,60v112.41h-94.17Z"/><path class="cls-2" d="M1614.2,2238.13V1845.57H1766c28.25,0,61.79,4.12,85.92,30.6,13.54,14.72,24.13,38.85,24.13,73.57,0,17.07-2.94,31.79-11.18,48.27-8.23,15.29-17.07,24.13-31.78,30.6,20.6,2.35,41.2,11.77,53.56,23.53,15.88,15.31,26.49,40.62,26.49,71.81,0,37.07-14.13,62.39-28.85,77.1-21.18,21.77-58.26,37.08-106.52,37.08ZM1716,2000.36h18.83c10.6,0,28.25-1.18,38.85-12.36,6.48-6.47,9.41-17.07,9.41-25.9,0-10-3.52-20-9.41-26.48-6.48-6.47-18.84-11.77-38.85-11.77H1716Zm0,158.31h23c28.25,0,51.8-2.94,63-15.89,4.71-5.29,8.24-14.13,8.24-25.3,0-12.36-4.12-22.37-10-28.25-12.36-12.36-37.67-13-63-13H1716Z"/><path class="cls-3" d="M2234,2203.4c-34.73,34.13-75.34,43.55-117.71,43.55-38.26,0-80.63-7.65-117.12-43.55-28.84-28.25-40.61-61.79-40.61-97.11,0-47.08,21.19-77.68,40.61-96.51,21.77-21.2,60-43.56,117.12-43.56,58.26,0,95.93,23,117.71,43.56,19.42,18.83,40.61,49.43,40.61,96.51C2274.56,2141.61,2262.79,2175.15,2234,2203.4Zm-159.49-140.07c-11.78,11.19-18.25,27.66-18.25,43,0,15.89,7.64,31.2,18.25,41.79a59,59,0,0,0,84.15,0,58.05,58.05,0,0,0,18.24-41.79c0-14.12-6.47-31.19-18.24-43-10.59-10-27.07-17.06-41.78-17.06C2101.52,2046.27,2085.05,2053.32,2074.46,2063.33Z"/><path class="cls-4" d="M2412.88,2095.11l-106.51-120.06h122.41l45.32,54.14,46.49-54.14h121.83l-108.88,120.06,131.83,143H2540.6l-67.1-78.28-67.09,78.28H2281.64Z"/><path class="cls-1" d="M360.08,2300.2c13.61,0,25.45,1.46,36.28,9.51,11.85,8.92,18.72,23.1,18.72,39.35s-6.72,30.28-19.6,39.35c-11.41,8-22.09,9.36-35.69,9.36H334.63V2300.2Zm-6.44,81.18h5.85c4.83,0,15.37-.29,23.85-6.43,7.75-5.56,12.14-15.5,12.14-25.89,0-10.24-4.24-20.19-12-26s-17.55-6.44-24-6.44h-5.85Z"/><path class="cls-1" d="M503.26,2341.3a34.14,34.14,0,0,1,0,49.59c-5.42,5-13.61,8.93-25.61,8.93s-20.18-4-25.59-8.93a34.12,34.12,0,0,1,0-49.59c5.41-5,13.6-8.92,25.59-8.92S497.84,2336.33,503.26,2341.3Zm-7.76,24.87A17.85,17.85,0,1,0,477.65,2384,17.68,17.68,0,0,0,495.5,2366.17Z"/><path class="cls-1" d="M590,2353.73a20.61,20.61,0,0,0-14.63-5.55c-11.84,0-17.85,8.63-17.85,17.84,0,10.4,7.76,18,18.44,18a20.64,20.64,0,0,0,14-5.56v17.41a36.24,36.24,0,0,1-16.38,4c-10,0-18.73-3.81-24.43-9.22-4.83-4.53-10.09-12.43-10.09-24.28,0-11.12,4.53-20.05,11-25.75a33.78,33.78,0,0,1,22.83-8.19,37.84,37.84,0,0,1,17.11,3.8Z"/><path class="cls-1" d="M635.88,2334.43v35.83c0,3.37.29,7.91,3.81,11.12a14.38,14.38,0,0,0,18.14,0c3.51-3.21,3.8-7.75,3.8-11.12v-35.83h17.85v38.77c0,5.7-.73,13.31-7.76,19.45-5.85,5.12-15.21,7.17-23,7.17s-17.12-2.05-23-7.17c-7-6.14-7.75-13.75-7.75-19.45v-38.77Z"/><path class="cls-1" d="M711,2334.43h17.85v7.17a23.3,23.3,0,0,1,18.87-9.22c13.32,0,18.43,8.34,20,11.55,3.07-5,9.37-11.55,20.33-11.55,9.81,0,14.63,4.54,17.12,7.75,4.1,5.41,4.39,10.83,4.39,17.85v39.79H791.79v-34.52c0-7.46-1.6-10.83-2.92-12.44a9,9,0,0,0-7.32-3.22,10.46,10.46,0,0,0-9.8,5.56c-2.34,3.8-2.49,8.93-2.49,12.29v32.33H751.42v-34.52c0-7.46-1.61-10.83-2.93-12.44a9,9,0,0,0-7.31-3.22,10.46,10.46,0,0,0-9.8,5.56c-2.35,3.8-2.49,8.93-2.49,12.29v32.33H711Z"/><path class="cls-1" d="M903.36,2380.07c-1.9,4.68-9.07,19.75-31.16,19.75-10.24,0-18-2.92-24.28-8.93-7-6.58-9.95-14.78-9.95-24.72,0-12.58,5.12-20.34,9.66-24.87,7.46-7.31,16.23-8.92,23.84-8.92,12.87,0,20.33,5.12,24.72,10.39,6.73,8,7.61,18,7.61,24.87v1.46H856.4a18.56,18.56,0,0,0,3.08,10.67c1.9,2.64,5.85,6,12.72,6a16.33,16.33,0,0,0,14.78-8.35ZM887,2357.69a15.2,15.2,0,0,0-30,0Z"/><path class="cls-1" d="M932.15,2334.43H950v8.2a23.23,23.23,0,0,1,19.6-10.25c5.56,0,13.75,1.61,18.72,7.75,4.39,5.41,5,11.7,5,17.85v39.79H975.45v-34.52c0-3.51-.15-9.07-3.36-12.44a11.42,11.42,0,0,0-8.34-3.22c-4.68,0-8.34,1.61-11,5.56s-2.77,8.64-2.77,12.29v32.33H932.15Z"/><path class="cls-1" d="M1042.71,2349.64v48.13h-17.85v-48.13h-7v-15.21h7v-21.65h17.85v21.65H1055v15.21Z"/><path class="cls-1" d="M1143.47,2300.2h13.75l25.89,62,27.06-62h13.76l16.38,97.57H1221l-8.78-60.12L1186,2397.77h-6.44l-25-60.12-9.95,60.12h-19.31Z"/><path class="cls-1" d="M1318.08,2334.43h17.85v63.34h-17.85v-8.19a22.7,22.7,0,0,1-19.45,10.24c-19.46,0-32.33-15.22-32.33-33.8s12.72-33.64,31.45-33.64c4.83,0,14.34.88,20.33,10.25ZM1284.73,2366c0,10.09,7.31,18,17.55,18s17.56-7.91,17.56-18-7.32-17.84-17.56-17.84S1284.73,2355.94,1284.73,2366Z"/><path class="cls-1" d="M1367.49,2334.43h17.85v8.2a23.25,23.25,0,0,1,19.6-10.25c5.56,0,13.76,1.61,18.73,7.75,4.39,5.41,5,11.7,5,17.85v39.79h-17.85v-34.52c0-3.51-.14-9.07-3.36-12.44a11.41,11.41,0,0,0-8.34-3.22c-4.68,0-8.34,1.61-11,5.56s-2.78,8.64-2.78,12.29v32.33h-17.85Z"/><path class="cls-1" d="M1508.78,2334.43h17.84v63.34h-17.84v-8.19a22.71,22.71,0,0,1-19.46,10.24c-19.46,0-32.33-15.22-32.33-33.8s12.73-33.64,31.45-33.64c4.83,0,14.34.88,20.34,10.25ZM1475.42,2366c0,10.09,7.32,18,17.56,18s17.55-7.91,17.55-18-7.31-17.84-17.55-17.84S1475.42,2355.94,1475.42,2366Z"/><path class="cls-1" d="M1606.47,2334.43h17.84v60.41c0,9.66-.88,19.75-8.78,27.65-4.38,4.4-12,8.93-25,8.93-12.29,0-19.6-3.66-23.7-7.32-5-4.24-8.78-11.7-10.24-18.87h19.31a15.2,15.2,0,0,0,4.39,7.61c3.51,3.22,8.34,3.36,10.82,3.36a15.06,15.06,0,0,0,10.83-3.94c4.09-4,4.54-8.93,4.54-14.05v-8.93a22.23,22.23,0,0,1-19.46,10.54c-8.49,0-15.8-2.63-22-8.64A34.76,34.76,0,0,1,1555,2366c0-9.94,3.66-19.16,9.8-25.15a31,31,0,0,1,21.8-8.49c11.85,0,17.41,6.44,19.9,10.25Zm-27.36,18.14a17.35,17.35,0,0,0-5.71,13.45,17.62,17.62,0,0,0,4.68,12.44A17.33,17.33,0,0,0,1591,2384a18,18,0,0,0,11.85-4.39,18.64,18.64,0,0,0,5.7-13.61,18,18,0,0,0-5.12-12.72,16.24,16.24,0,0,0-12.43-5.12A17.14,17.14,0,0,0,1579.11,2352.57Z"/><path class="cls-1" d="M1718.05,2380.07c-1.9,4.68-9.07,19.75-31.16,19.75-10.24,0-18-2.92-24.29-8.93-7-6.58-9.94-14.78-9.94-24.72,0-12.58,5.12-20.34,9.65-24.87,7.46-7.31,16.24-8.92,23.84-8.92,12.89,0,20.35,5.12,24.73,10.39,6.72,8,7.61,18,7.61,24.87v1.46h-47.4a18.63,18.63,0,0,0,3.07,10.67c1.91,2.64,5.85,6,12.73,6a16.32,16.32,0,0,0,14.77-8.35Zm-16.39-22.38a15.19,15.19,0,0,0-30,0Z"/><path class="cls-1" d="M1746.84,2334.43h17.84v7.17a23.31,23.31,0,0,1,18.87-9.22c13.31,0,18.44,8.34,20,11.55a23.32,23.32,0,0,1,20.33-11.55c9.8,0,14.63,4.54,17.12,7.75,4.09,5.41,4.38,10.83,4.38,17.85v39.79h-17.84v-34.52c0-7.46-1.61-10.83-2.93-12.44a9,9,0,0,0-7.32-3.22,10.46,10.46,0,0,0-9.79,5.56c-2.34,3.8-2.49,8.93-2.49,12.29v32.33h-17.85v-34.52c0-7.46-1.61-10.83-2.92-12.44a9,9,0,0,0-7.31-3.22,10.49,10.49,0,0,0-9.82,5.56c-2.33,3.8-2.48,8.93-2.48,12.29v32.33h-17.84Z"/><path class="cls-1" d="M1939.16,2380.07c-1.9,4.68-9.07,19.75-31.16,19.75-10.23,0-18-2.92-24.28-8.93-7-6.58-10-14.78-10-24.72,0-12.58,5.13-20.34,9.66-24.87,7.46-7.31,16.24-8.92,23.84-8.92,12.88,0,20.34,5.12,24.72,10.39,6.73,8,7.61,18,7.61,24.87v1.46h-47.39c0,3.8,1,7.9,3.06,10.67s5.85,6,12.73,6a16.33,16.33,0,0,0,14.78-8.35Zm-16.38-22.38a15.2,15.2,0,0,0-30,0Z"/><path class="cls-1" d="M1968,2334.43h17.84v8.2a23.27,23.27,0,0,1,19.61-10.25c5.55,0,13.75,1.61,18.73,7.75,4.38,5.41,5,11.7,5,17.85v39.79h-17.84v-34.52c0-3.51-.14-9.07-3.36-12.44a11.44,11.44,0,0,0-8.35-3.22c-4.67,0-8.33,1.61-11,5.56s-2.79,8.64-2.79,12.29v32.33H1968Z"/><path class="cls-1" d="M2078.51,2349.64v48.13h-17.84v-48.13h-7v-15.21h7v-21.65h17.84v21.65h12.29v15.21Z"/><path class="cls-1" d="M2214.08,2322.43c-5.71-7.6-12.44-8.34-15.95-8.34-10.24,0-13.46,6.44-13.46,11.41a8.24,8.24,0,0,0,3.06,6.59c2.35,2.19,5.56,3.36,11.72,5.56,7.6,2.63,14.77,5.27,19.74,9.8,4.39,3.94,8.34,10.53,8.34,20.48,0,19-13.76,32-33.93,32-18,0-28.54-11-33.65-18.43l12.43-11.85a22.88,22.88,0,0,0,20.48,13c8.63,0,15.06-5.27,15.06-13.45a11.29,11.29,0,0,0-3.8-8.78c-3.66-3.37-9.51-5.27-15.07-7.17-5.12-1.76-11.26-4.1-16.23-8.48-3.22-2.79-7.76-8.2-7.76-18.15,0-14.34,9.67-28.66,31.31-28.66a37.5,37.5,0,0,1,27.65,11.4Z"/><path class="cls-1" d="M2278.11,2388.26,2248,2334.43h20.77l19.61,36,17.55-36h20.19l-51,96.84h-20.19Z"/><path class="cls-1" d="M2382.54,2349.49a14.82,14.82,0,0,0-10.39-4.24c-4.24,0-6.87,2.05-6.87,5.13,0,1.61.73,4.09,5.71,5.7l4.23,1.31c5,1.61,12.44,4.11,16.1,9.07a18.41,18.41,0,0,1,3.21,10.54,21.08,21.08,0,0,1-7,16.09c-5.13,4.68-11.27,6.73-19,6.73-13.17,0-20.63-6.29-24.57-10.54l9.36-10.82c3.51,4.1,8.78,7.32,14,7.32,5,0,8.78-2.5,8.78-6.88,0-4-3.22-5.56-5.56-6.44l-4.11-1.46c-4.53-1.61-9.8-3.65-13.6-7.6a17,17,0,0,1-4.82-12.15,18.78,18.78,0,0,1,6.58-14.33c5-4,11.41-4.54,16.53-4.54a31.57,31.57,0,0,1,20.19,6.73Z"/><path class="cls-1" d="M2439.56,2349.64v48.13h-17.84v-48.13h-7v-15.21h7v-21.65h17.84v21.65h12.3v15.21Z"/><path class="cls-1" d="M2538,2380.07c-1.9,4.68-9.07,19.75-31.16,19.75-10.23,0-18-2.92-24.28-8.93-7-6.58-10-14.78-10-24.72,0-12.58,5.13-20.34,9.66-24.87,7.46-7.31,16.24-8.92,23.84-8.92,12.88,0,20.34,5.12,24.72,10.39,6.73,8,7.61,18,7.61,24.87v1.46H2491c0,3.8,1,7.9,3.06,10.67s5.85,6,12.73,6a16.33,16.33,0,0,0,14.78-8.35Zm-16.38-22.38a15.2,15.2,0,0,0-30,0Z"/><path class="cls-1" d="M2566.78,2334.43h17.84v7.17a23.31,23.31,0,0,1,18.87-9.22c13.32,0,18.44,8.34,20.05,11.55a23.33,23.33,0,0,1,20.34-11.55c9.79,0,14.63,4.54,17.11,7.75,4.09,5.41,4.38,10.83,4.38,17.85v39.79h-17.84v-34.52c0-7.46-1.61-10.83-2.93-12.44a9,9,0,0,0-7.31-3.22,10.47,10.47,0,0,0-9.8,5.56c-2.34,3.8-2.48,8.93-2.48,12.29v32.33h-17.86v-34.52c0-7.46-1.61-10.83-2.92-12.44a9,9,0,0,0-7.31-3.22,10.48,10.48,0,0,0-9.81,5.56c-2.34,3.8-2.49,8.93-2.49,12.29v32.33h-17.84Z"/><path class="cls-1" d="M1331.32,1261.11h164.32a24.85,24.85,0,1,0,0-49.69H1331.32a24.85,24.85,0,1,0,0,49.69Z"/><path class="cls-1" d="M1331.32,1351.47H1667a24.85,24.85,0,0,0,0-49.7H1331.32a24.85,24.85,0,1,0,0,49.7Z"/><path class="cls-1" d="M1667.05,1474.44H1331.32a24.85,24.85,0,1,0,0,49.7h335.73a24.85,24.85,0,0,0,0-49.7Z"/><path class="cls-1" d="M1331.32,1437.82h335.73a24.85,24.85,0,0,0,0-49.69H1331.32a24.85,24.85,0,1,0,0,49.69Z"/><path class="cls-5" d="M1874.14,1532.53l154.45,89.2-154.45,89.15v-59.33H1190.46V1014.93a29.78,29.78,0,0,1,29.82-29.82h373.64a29.84,29.84,0,0,1,21.32,8.95L1801,1184a29.75,29.75,0,0,1,8.5,20.87v315.45a29.82,29.82,0,1,1-59.63,0V1248.54H1557.69V1044.75h-307.6v547.17h624.05Z"/><path class="cls-6" d="M2326.45,1260.81c0,149.68-84.58,279.92-208.41,345.52l-57.5-34.54-4.32-2.58c1.44-.55,2.88-1.14,4.32-1.74,120.85-49.35,206.28-168.21,206.28-306.66a331.31,331.31,0,0,0-395.41-324.89L1840.65,942l-4.52-31c-23.56-161.2-164.44-282.75-327.63-282.75-164.89,0-305.91,123-328.08,286.13l-4.42,32.9-32.25-8a332.11,332.11,0,0,0-79.41-9.59,330.92,330.92,0,0,0-331.16,331.15c0,182.58,148.54,331.11,331.16,331.11h86.37v59.63h-86.37c-215.47,0-390.79-175.27-390.79-390.74A390.9,390.9,0,0,1,1126.9,875c39-176.76,197.68-306.46,381.6-306.46a390.89,390.89,0,0,1,381.15,304.13,394.85,394.85,0,0,1,46.06-2.69,390.48,390.48,0,0,1,390.74,390.79Z"/></svg>